<svg width="600" height="400" viewBox="0 0 600 400" fill="none" xmlns="http://www.w3.org/2000/svg">
  <!-- Background -->
  <rect width="600" height="400" fill="#f8fafc" />
  
  <!-- Decorative elements -->
  <circle cx="100" cy="100" r="50" fill="#7c3aed" opacity="0.1" />
  <circle cx="500" cy="300" r="70" fill="#22c55e" opacity="0.1" />
  <circle cx="300" cy="150" r="30" fill="#f59e0b" opacity="0.1" />
  
  <!-- People silhouettes -->
  <!-- Person 1 -->
  <circle cx="200" cy="180" r="30" fill="#7c3aed" />
  <rect x="185" y="210" width="30" height="80" fill="#7c3aed" />
  <rect x="170" y="230" width="20" height="60" fill="#7c3aed" transform="rotate(-30 170 230)" />
  <rect x="210" y="230" width="20" height="60" fill="#7c3aed" transform="rotate(30 210 230)" />
  
  <!-- Person 2 -->
  <circle cx="300" cy="180" r="30" fill="#22c55e" />
  <rect x="285" y="210" width="30" height="80" fill="#22c55e" />
  <rect x="270" y="230" width="20" height="60" fill="#22c55e" transform="rotate(-30 270 230)" />
  <rect x="310" y="230" width="20" height="60" fill="#22c55e" transform="rotate(30 310 230)" />
  
  <!-- Person 3 -->
  <circle cx="400" cy="180" r="30" fill="#f59e0b" />
  <rect x="385" y="210" width="30" height="80" fill="#f59e0b" />
  <rect x="370" y="230" width="20" height="60" fill="#f59e0b" transform="rotate(-30 370 230)" />
  <rect x="410" y="230" width="20" height="60" fill="#f59e0b" transform="rotate(30 410 230)" />
  
  <!-- Connecting lines -->
  <line x1="230" y1="180" x2="270" y2="180" stroke="#333" stroke-width="3" stroke-dasharray="5 5" />
  <line x1="330" y1="180" x2="370" y2="180" stroke="#333" stroke-width="3" stroke-dasharray="5 5" />
</svg> 